<mxfile host="app.diagrams.net" agent="Mozilla/5.0 (Windows NT 10.0; Win64; x64) AppleWebKit/537.36 (KHTML, like Gecko) Chrome/109.0.0.0 Safari/537.36" version="24.8.6">
  <diagram id="KYiJEq-vqwapKYEtQF8s" name="Trang-3">
    <mxGraphModel dx="666" dy="1734" grid="0" gridSize="10" guides="1" tooltips="1" connect="1" arrows="1" fold="1" page="0" pageScale="1" pageWidth="827" pageHeight="1169" math="0" shadow="0">
      <root>
        <mxCell id="0" />
        <mxCell id="1" parent="0" />
        <mxCell id="O24-1p69EpEDUxPEXufo-1" style="edgeStyle=orthogonalEdgeStyle;rounded=0;orthogonalLoop=1;jettySize=auto;html=1;exitX=0.5;exitY=1;exitDx=0;exitDy=0;entryX=0.5;entryY=0;entryDx=0;entryDy=0;" edge="1" parent="1" source="O24-1p69EpEDUxPEXufo-2" target="O24-1p69EpEDUxPEXufo-7">
          <mxGeometry relative="1" as="geometry" />
        </mxCell>
        <mxCell id="O24-1p69EpEDUxPEXufo-2" value="Start" style="ellipse;whiteSpace=wrap;html=1;" vertex="1" parent="1">
          <mxGeometry x="150" y="-1020" width="120" height="80" as="geometry" />
        </mxCell>
        <mxCell id="O24-1p69EpEDUxPEXufo-3" value="Yes" style="edgeStyle=orthogonalEdgeStyle;rounded=0;orthogonalLoop=1;jettySize=auto;html=1;exitX=0.25;exitY=1;exitDx=0;exitDy=0;entryX=0.25;entryY=0;entryDx=0;entryDy=0;" edge="1" parent="1" source="O24-1p69EpEDUxPEXufo-5" target="O24-1p69EpEDUxPEXufo-9">
          <mxGeometry relative="1" as="geometry" />
        </mxCell>
        <mxCell id="O24-1p69EpEDUxPEXufo-4" value="No" style="edgeStyle=orthogonalEdgeStyle;rounded=0;orthogonalLoop=1;jettySize=auto;html=1;exitX=0.75;exitY=1;exitDx=0;exitDy=0;entryX=0.75;entryY=0;entryDx=0;entryDy=0;" edge="1" parent="1" source="O24-1p69EpEDUxPEXufo-5" target="O24-1p69EpEDUxPEXufo-9">
          <mxGeometry relative="1" as="geometry" />
        </mxCell>
        <mxCell id="O24-1p69EpEDUxPEXufo-5" value="Score &amp;gt; 5?" style="shape=parallelogram;perimeter=parallelogramPerimeter;whiteSpace=wrap;html=1;fixedSize=1;" vertex="1" parent="1">
          <mxGeometry x="150" y="-800" width="120" height="60" as="geometry" />
        </mxCell>
        <mxCell id="O24-1p69EpEDUxPEXufo-6" style="edgeStyle=orthogonalEdgeStyle;rounded=0;orthogonalLoop=1;jettySize=auto;html=1;exitX=0.5;exitY=1;exitDx=0;exitDy=0;entryX=0.5;entryY=0;entryDx=0;entryDy=0;" edge="1" parent="1" source="O24-1p69EpEDUxPEXufo-7" target="O24-1p69EpEDUxPEXufo-5">
          <mxGeometry relative="1" as="geometry" />
        </mxCell>
        <mxCell id="O24-1p69EpEDUxPEXufo-7" value="Nhâp score" style="rounded=0;whiteSpace=wrap;html=1;" vertex="1" parent="1">
          <mxGeometry x="150" y="-900" width="120" height="60" as="geometry" />
        </mxCell>
        <mxCell id="O24-1p69EpEDUxPEXufo-8" style="edgeStyle=orthogonalEdgeStyle;rounded=0;orthogonalLoop=1;jettySize=auto;html=1;exitX=0.5;exitY=1;exitDx=0;exitDy=0;entryX=0.5;entryY=0;entryDx=0;entryDy=0;" edge="1" parent="1" source="O24-1p69EpEDUxPEXufo-9" target="O24-1p69EpEDUxPEXufo-11">
          <mxGeometry relative="1" as="geometry" />
        </mxCell>
        <mxCell id="O24-1p69EpEDUxPEXufo-9" value="Show: &quot;Đạt&quot;" style="rounded=0;whiteSpace=wrap;html=1;" vertex="1" parent="1">
          <mxGeometry x="150" y="-680" width="120" height="60" as="geometry" />
        </mxCell>
        <mxCell id="O24-1p69EpEDUxPEXufo-10" style="edgeStyle=orthogonalEdgeStyle;rounded=0;orthogonalLoop=1;jettySize=auto;html=1;exitX=0.5;exitY=1;exitDx=0;exitDy=0;entryX=0.5;entryY=0;entryDx=0;entryDy=0;" edge="1" parent="1" source="O24-1p69EpEDUxPEXufo-11">
          <mxGeometry relative="1" as="geometry">
            <mxPoint x="210" y="-437" as="targetPoint" />
          </mxGeometry>
        </mxCell>
        <mxCell id="O24-1p69EpEDUxPEXufo-11" value="Show: &quot;Không đạt&quot;" style="rounded=0;whiteSpace=wrap;html=1;" vertex="1" parent="1">
          <mxGeometry x="150" y="-560" width="120" height="60" as="geometry" />
        </mxCell>
        <mxCell id="O24-1p69EpEDUxPEXufo-13" value="END" style="ellipse;whiteSpace=wrap;html=1;" vertex="1" parent="1">
          <mxGeometry x="150" y="-436" width="120" height="80" as="geometry" />
        </mxCell>
      </root>
    </mxGraphModel>
  </diagram>
</mxfile>
